<svg width="31" height="30" viewBox="0 0 31 30" fill="none" xmlns="http://www.w3.org/2000/svg">
<path d="M7.70692 20.9817L8.15774 20.3823L7.70692 20.9817ZM4.27649 12.8147L3.54714 12.9895L4.27649 12.8147ZM7.48204 20.8044L7.95985 20.2263L7.48204 20.8044ZM28.0238 13.4282L27.2945 13.2534L28.0238 13.4282ZM25.362 20.4469L24.8366 19.9117L25.362 20.4469ZM24.3003 21.2842L23.9023 20.6485L24.3003 21.2842ZM27.9275 8.44497L28.4422 7.89951L27.9275 8.44497ZM28.3796 9.01831L27.7292 9.39177L28.3796 9.01831ZM2.47761 2.3181C2.37715 1.91625 1.96994 1.67193 1.5681 1.77239C1.16625 1.87285 0.921932 2.28006 1.02239 2.6819L2.47761 2.3181ZM20.5 18.25C20.9142 18.25 21.25 17.9142 21.25 17.5C21.25 17.0858 20.9142 16.75 20.5 16.75V18.25ZM13 16.75C12.5858 16.75 12.25 17.0858 12.25 17.5C12.25 17.9142 12.5858 18.25 13 18.25V16.75ZM3.06579 8.51316H23.5561V7.01316H3.06579V8.51316ZM16.8546 21.4868H16.2237V22.9868H16.8546V21.4868ZM5.00583 12.6399L3.79513 7.58836L2.33644 7.93796L3.54714 12.9895L5.00583 12.6399ZM16.2237 21.4868C13.9233 21.4868 12.2623 21.4857 10.9657 21.335C9.68799 21.1865 8.84616 20.9001 8.15774 20.3823L7.2561 21.5811C8.23644 22.3184 9.37032 22.6596 10.7925 22.8249C12.1957 22.988 13.9587 22.9868 16.2237 22.9868V21.4868ZM3.54714 12.9895C4.07503 15.1921 4.48479 16.9068 4.97043 18.2334C5.46263 19.5778 6.05871 20.601 7.00423 21.3825L7.95985 20.2263C7.29587 19.6775 6.8212 18.9256 6.379 17.7177C5.93025 16.4919 5.54198 14.8769 5.00583 12.6399L3.54714 12.9895ZM8.15774 20.3823C8.0906 20.3318 8.02461 20.2798 7.95985 20.2263L7.00423 21.3825C7.08666 21.4506 7.17064 21.5168 7.2561 21.5811L8.15774 20.3823ZM27.2945 13.2534C26.8307 15.1886 26.495 16.5856 26.1201 17.6589C25.7502 18.7179 25.3639 19.394 24.8366 19.9117L25.8875 20.9821C26.6412 20.2421 27.1256 19.3293 27.5362 18.1535C27.9419 16.9921 28.2965 15.5085 28.7532 13.603L27.2945 13.2534ZM16.8546 22.9868C18.8141 22.9868 20.3394 22.9877 21.5634 22.864C22.8025 22.7386 23.8031 22.4804 24.6984 21.9199L23.9023 20.6485C23.2761 21.0406 22.5285 21.2587 21.4125 21.3716C20.2813 21.486 18.8445 21.4868 16.8546 21.4868V22.9868ZM24.8366 19.9117C24.5528 20.1903 24.2395 20.4374 23.9023 20.6485L24.6984 21.9199C25.1275 21.6512 25.5262 21.3368 25.8875 20.9821L24.8366 19.9117ZM23.5561 8.51316C24.7919 8.51316 25.6499 8.51448 26.2922 8.59286C26.9222 8.66973 27.2202 8.80875 27.4127 8.99043L28.4422 7.89951C27.9123 7.39937 27.2409 7.19749 26.4739 7.10391C25.7194 7.01184 24.7529 7.01316 23.5561 7.01316V8.51316ZM28.7532 13.603C29.0321 12.4391 29.2587 11.4996 29.345 10.7444C29.4327 9.97677 29.3929 9.27679 29.03 8.64486L27.7292 9.39177C27.861 9.62131 27.9268 9.94348 27.8547 10.574C27.7812 11.217 27.5825 12.0516 27.2945 13.2534L28.7532 13.603ZM27.4127 8.99043C27.5373 9.10799 27.6439 9.24322 27.7292 9.39177L29.03 8.64486C28.8716 8.36898 28.6736 8.11785 28.4422 7.89951L27.4127 8.99043ZM3.7934 7.58126L2.47761 2.3181L1.02239 2.6819L2.33818 7.94506L3.7934 7.58126ZM20.5 16.75H13V18.25H20.5V16.75Z" fill="white"/>
<path d="M13.5925 26.1844C13.5925 26.9111 13.0034 27.5002 12.2767 27.5002C11.55 27.5002 10.9609 26.9111 10.9609 26.1844C10.9609 25.4578 11.55 24.8687 12.2767 24.8687C13.0034 24.8687 13.5925 25.4578 13.5925 26.1844Z" fill="white"/>
<path d="M21.4873 26.1844C21.4873 26.9111 20.8982 27.5002 20.1715 27.5002C19.4448 27.5002 18.8557 26.9111 18.8557 26.1844C18.8557 25.4578 19.4448 24.8687 20.1715 24.8687C20.8982 24.8687 21.4873 25.4578 21.4873 26.1844Z" fill="white"/>
</svg>
