<svg width="891" height="736" viewBox="0 0 891 736" fill="none" xmlns="http://www.w3.org/2000/svg">
<path d="M170.346 310.994C175.126 296.554 179.056 278.334 186.036 264.684C193.026 251.044 198.856 238.134 209.096 226.744C219.346 215.354 229.246 206.664 241.596 198.244C253.946 189.824 270.026 183.514 284.676 180.324C299.326 177.134 325.146 171.744 334.046 185.294C342.936 198.854 354.456 204.564 366.266 215.074C378.066 225.594 390.346 230.474 404.656 237.684C418.956 244.904 442.176 245.334 458.326 242.974C474.466 240.604 488.186 233.524 501.656 225.304C515.116 217.074 523.326 208.224 532.596 195.244C541.866 182.254 547.396 167.984 551.416 152.064C555.446 136.154 554.786 112.944 551.346 96.9939C547.906 81.0439 543.256 66.2639 534.096 53.2439C524.936 40.2139 516.856 31.6439 503.576 22.7639C490.296 13.8839 475.936 9.1439 460.016 5.3239C444.096 1.5039 420.326 -0.416102 403.566 2.2139C386.806 4.8439 368.616 7.5639 353.416 13.0639C338.226 18.5739 324.026 23.7039 310.426 31.0739C296.816 38.4339 285.266 45.7439 273.596 55.2439C261.916 64.7339 251.326 72.4639 241.096 83.7439C230.876 95.0339 221.856 105.504 213.646 118.294C205.446 131.094 197.976 142.814 191.656 157.304C185.326 171.784 179.546 185.934 175.326 201.974C171.096 218.004 167.626 236.324 166.346 253.994C165.066 271.664 167.546 293.844 170.346 310.994ZM539.346 82.9939C549.626 110.844 549.516 141.214 538.346 168.994C534.986 177.344 530.216 184.674 525.346 191.994C514.966 207.604 500.056 219.694 483.346 226.994C470.676 232.524 456.626 236.024 442.346 236.994C436.526 237.394 430.886 236.804 425.346 235.994C411.556 233.974 397.436 229.394 386.346 220.994C400.266 228.304 416.086 229.964 432.346 228.994C435.516 228.824 438.236 228.494 441.346 227.994C457.416 225.434 472.346 221.664 486.346 212.994C505.806 200.944 519.686 180.834 528.346 160.994C542.506 128.564 535.186 89.8139 515.096 61.2439C494.996 32.6839 458.906 22.9939 425.346 22.9939C420.676 22.9939 416.016 22.9939 411.346 22.9939C394.726 22.9939 377.746 25.9939 362.346 30.9939C351.946 34.3739 340.606 39.5139 330.346 43.9939C314.126 51.0739 297.476 62.1639 283.346 72.9939C266.336 91.5739 245.776 103.684 232.596 126.244C219.416 148.794 205.086 170.124 197.416 196.064C189.756 222.014 184.096 253.134 175.346 278.994C171.656 197.954 207.856 115.724 274.346 65.9939C294.516 50.8439 313.316 38.9339 336.346 28.9939C352.806 21.8939 368.586 16.0539 386.346 12.9939C449.176 2.1639 515.806 19.2339 539.346 82.9939ZM464.346 78.9939C466.956 88.6039 464.296 102.904 465.346 112.994C466.396 123.084 477.726 127.354 473.346 136.994C470.226 143.864 463.166 147.594 456.126 145.214C449.076 142.844 442.936 134.404 447.276 127.924C451.616 121.444 459.436 118.394 456.346 108.994C453.256 99.5939 459.816 89.9339 456.346 80.9939C451.946 80.1039 446.866 76.9239 446.346 71.9939C427.676 71.9939 409.016 71.9939 390.346 71.9939C395.436 69.7239 402.506 71.6139 408.346 70.9939C408.306 70.9939 408.346 69.9939 408.346 69.9939C407.016 69.9939 405.676 69.9939 404.346 69.9939C400.276 69.9939 394.216 71.1539 390.346 69.9939C388.646 69.4839 387.196 67.3439 386.346 65.9939C375.496 66.0439 365.686 71.9839 359.346 80.9939C354.956 86.1339 348.206 90.7039 344.346 95.9939C343.816 96.8939 341.516 97.2139 342.346 98.9939C352.066 98.9039 361.436 97.3339 371.346 97.9939C375.766 98.4039 381.616 100.124 386.346 98.9939C391.076 97.8639 397.976 100.974 402.346 98.9939C404.456 83.1639 432.116 87.1539 430.346 103.994C428.576 120.834 403.906 120.344 402.346 104.994C396.736 102.574 384.556 104.994 378.346 104.994C362.346 104.994 346.346 104.994 330.346 104.994C335.866 95.8039 342.246 86.8239 351.346 79.9939C357.576 73.7639 358.656 72.5939 365.426 66.0739C372.206 59.5539 377.526 61.8139 386.346 61.9939C395.496 62.1739 403.256 62.4539 412.346 62.9939C421.436 63.5339 431.186 62.2439 440.346 62.9939C449.506 63.7439 446.296 51.7339 455.576 50.2239C464.856 48.7139 469.826 51.2439 473.116 60.2239C476.416 69.1939 467.596 73.1039 464.346 78.9939ZM417.346 164.994C417.306 165.494 417.346 165.994 417.346 165.994C419.976 169.544 417.156 174.544 420.346 177.994C425.856 182.304 430.116 186.474 427.566 194.214C425.016 201.954 417.466 203.594 410.346 200.994C400.536 197.414 400.976 180.884 411.346 177.994C414.516 153.104 385.266 131.124 362.346 138.994C370.276 144.744 380.566 150.494 384.346 159.994C385.636 164.074 384.716 168.124 384.346 171.994C384.346 181.494 385.176 192.314 383.346 200.994C373.386 190.804 384.626 167.264 375.596 157.744C366.566 148.234 356.716 137.554 343.346 137.994C329.976 138.434 307.166 134.704 296.096 141.744C285.036 148.784 279.756 159.434 269.346 166.994C269.526 154.154 280.326 143.044 291.596 135.244C302.866 127.434 328.156 132.754 342.346 131.994C356.536 131.234 380.476 129.014 392.046 136.294C403.606 143.584 413.886 152.364 417.346 164.994Z" fill="black" fill-opacity="0.2"/>
<path d="M170.346 310.994C175.126 296.554 179.056 278.334 186.036 264.684C193.026 251.044 198.856 238.134 209.096 226.744C219.346 215.354 229.246 206.664 241.596 198.244C253.946 189.824 270.026 183.514 284.676 180.324C299.326 177.134 325.146 171.744 334.046 185.294C342.936 198.854 354.456 204.564 366.266 215.074C378.066 225.594 390.346 230.474 404.656 237.684C418.956 244.904 442.176 245.334 458.326 242.974C474.466 240.604 488.186 233.524 501.656 225.304C515.116 217.074 523.326 208.224 532.596 195.244C541.866 182.254 547.396 167.984 551.416 152.064C555.446 136.154 554.786 112.944 551.346 96.9939C547.906 81.0439 543.256 66.2639 534.096 53.2439C524.936 40.2139 516.856 31.6439 503.576 22.7639C490.296 13.8839 475.936 9.1439 460.016 5.3239C444.096 1.5039 420.326 -0.416102 403.566 2.2139C386.806 4.8439 368.616 7.5639 353.416 13.0639C338.226 18.5739 324.026 23.7039 310.426 31.0739C296.816 38.4339 285.266 45.7439 273.596 55.2439C261.916 64.7339 251.326 72.4639 241.096 83.7439C230.876 95.0339 221.856 105.504 213.646 118.294C205.446 131.094 197.976 142.814 191.656 157.304C185.326 171.784 179.546 185.934 175.326 201.974C171.096 218.004 167.626 236.324 166.346 253.994C165.066 271.664 167.546 293.844 170.346 310.994ZM539.346 82.9939C549.626 110.844 549.516 141.214 538.346 168.994C534.986 177.344 530.216 184.674 525.346 191.994C514.966 207.604 500.056 219.694 483.346 226.994C470.676 232.524 456.626 236.024 442.346 236.994C436.526 237.394 430.886 236.804 425.346 235.994C411.556 233.974 397.436 229.394 386.346 220.994C400.266 228.304 416.086 229.964 432.346 228.994C435.516 228.824 438.236 228.494 441.346 227.994C457.416 225.434 472.346 221.664 486.346 212.994C505.806 200.944 519.686 180.834 528.346 160.994C542.506 128.564 535.186 89.8139 515.096 61.2439C494.996 32.6839 458.906 22.9939 425.346 22.9939C420.676 22.9939 416.016 22.9939 411.346 22.9939C394.726 22.9939 377.746 25.9939 362.346 30.9939C351.946 34.3739 340.606 39.5139 330.346 43.9939C314.126 51.0739 297.476 62.1639 283.346 72.9939C266.336 91.5739 245.776 103.684 232.596 126.244C219.416 148.794 205.086 170.124 197.416 196.064C189.756 222.014 184.096 253.134 175.346 278.994C171.656 197.954 207.856 115.724 274.346 65.9939C294.516 50.8439 313.316 38.9339 336.346 28.9939C352.806 21.8939 368.586 16.0539 386.346 12.9939C449.176 2.1639 515.806 19.2339 539.346 82.9939ZM464.346 78.9939C466.956 88.6039 464.296 102.904 465.346 112.994C466.396 123.084 477.726 127.354 473.346 136.994C470.226 143.864 463.166 147.594 456.126 145.214C449.076 142.844 442.936 134.404 447.276 127.924C451.616 121.444 459.436 118.394 456.346 108.994C453.256 99.5939 459.816 89.9339 456.346 80.9939C451.946 80.1039 446.866 76.9239 446.346 71.9939C427.676 71.9939 409.016 71.9939 390.346 71.9939C395.436 69.7239 402.506 71.6139 408.346 70.9939C408.306 70.9939 408.346 69.9939 408.346 69.9939C407.016 69.9939 405.676 69.9939 404.346 69.9939C400.276 69.9939 394.216 71.1539 390.346 69.9939C388.646 69.4839 387.196 67.3439 386.346 65.9939C375.496 66.0439 365.686 71.9839 359.346 80.9939C354.956 86.1339 348.206 90.7039 344.346 95.9939C343.816 96.8939 341.516 97.2139 342.346 98.9939C352.066 98.9039 361.436 97.3339 371.346 97.9939C375.766 98.4039 381.616 100.124 386.346 98.9939C391.076 97.8639 397.976 100.974 402.346 98.9939C404.456 83.1639 432.116 87.1539 430.346 103.994C428.576 120.834 403.906 120.344 402.346 104.994C396.736 102.574 384.556 104.994 378.346 104.994C362.346 104.994 346.346 104.994 330.346 104.994C335.866 95.8039 342.246 86.8239 351.346 79.9939C357.576 73.7639 358.656 72.5939 365.426 66.0739C372.206 59.5539 377.526 61.8139 386.346 61.9939C395.496 62.1739 403.256 62.4539 412.346 62.9939C421.436 63.5339 431.186 62.2439 440.346 62.9939C449.506 63.7439 446.296 51.7339 455.576 50.2239C464.856 48.7139 469.826 51.2439 473.116 60.2239C476.416 69.1939 467.596 73.1039 464.346 78.9939ZM417.346 164.994C417.306 165.494 417.346 165.994 417.346 165.994C419.976 169.544 417.156 174.544 420.346 177.994C425.856 182.304 430.116 186.474 427.566 194.214C425.016 201.954 417.466 203.594 410.346 200.994C400.536 197.414 400.976 180.884 411.346 177.994C414.516 153.104 385.266 131.124 362.346 138.994C370.276 144.744 380.566 150.494 384.346 159.994C385.636 164.074 384.716 168.124 384.346 171.994C384.346 181.494 385.176 192.314 383.346 200.994C373.386 190.804 384.626 167.264 375.596 157.744C366.566 148.234 356.716 137.554 343.346 137.994C329.976 138.434 307.166 134.704 296.096 141.744C285.036 148.784 279.756 159.434 269.346 166.994C269.526 154.154 280.326 143.044 291.596 135.244C302.866 127.434 328.156 132.754 342.346 131.994C356.536 131.234 380.476 129.014 392.046 136.294C403.606 143.584 413.886 152.364 417.346 164.994Z" fill="url(#paint0_linear_6_7730)"/>
<path d="M170.346 310.994C175.126 296.554 179.056 278.334 186.036 264.684C193.026 251.044 198.856 238.134 209.096 226.744C219.346 215.354 229.246 206.664 241.596 198.244C253.946 189.824 270.026 183.514 284.676 180.324C299.326 177.134 325.146 171.744 334.046 185.294C342.936 198.854 354.456 204.564 366.266 215.074C378.066 225.594 390.346 230.474 404.656 237.684C418.956 244.904 442.176 245.334 458.326 242.974C474.466 240.604 488.186 233.524 501.656 225.304C515.116 217.074 523.326 208.224 532.596 195.244C541.866 182.254 547.396 167.984 551.416 152.064C555.446 136.154 554.786 112.944 551.346 96.9939C547.906 81.0439 543.256 66.2639 534.096 53.2439C524.936 40.2139 516.856 31.6439 503.576 22.7639C490.296 13.8839 475.936 9.1439 460.016 5.3239C444.096 1.5039 420.326 -0.416102 403.566 2.2139C386.806 4.8439 368.616 7.5639 353.416 13.0639C338.226 18.5739 324.026 23.7039 310.426 31.0739C296.816 38.4339 285.266 45.7439 273.596 55.2439C261.916 64.7339 251.326 72.4639 241.096 83.7439C230.876 95.0339 221.856 105.504 213.646 118.294C205.446 131.094 197.976 142.814 191.656 157.304C185.326 171.784 179.546 185.934 175.326 201.974C171.096 218.004 167.626 236.324 166.346 253.994C165.066 271.664 167.546 293.844 170.346 310.994ZM539.346 82.9939C549.626 110.844 549.516 141.214 538.346 168.994C534.986 177.344 530.216 184.674 525.346 191.994C514.966 207.604 500.056 219.694 483.346 226.994C470.676 232.524 456.626 236.024 442.346 236.994C436.526 237.394 430.886 236.804 425.346 235.994C411.556 233.974 397.436 229.394 386.346 220.994C400.266 228.304 416.086 229.964 432.346 228.994C435.516 228.824 438.236 228.494 441.346 227.994C457.416 225.434 472.346 221.664 486.346 212.994C505.806 200.944 519.686 180.834 528.346 160.994C542.506 128.564 535.186 89.8139 515.096 61.2439C494.996 32.6839 458.906 22.9939 425.346 22.9939C420.676 22.9939 416.016 22.9939 411.346 22.9939C394.726 22.9939 377.746 25.9939 362.346 30.9939C351.946 34.3739 340.606 39.5139 330.346 43.9939C314.126 51.0739 297.476 62.1639 283.346 72.9939C266.336 91.5739 245.776 103.684 232.596 126.244C219.416 148.794 205.086 170.124 197.416 196.064C189.756 222.014 184.096 253.134 175.346 278.994C171.656 197.954 207.856 115.724 274.346 65.9939C294.516 50.8439 313.316 38.9339 336.346 28.9939C352.806 21.8939 368.586 16.0539 386.346 12.9939C449.176 2.1639 515.806 19.2339 539.346 82.9939ZM464.346 78.9939C466.956 88.6039 464.296 102.904 465.346 112.994C466.396 123.084 477.726 127.354 473.346 136.994C470.226 143.864 463.166 147.594 456.126 145.214C449.076 142.844 442.936 134.404 447.276 127.924C451.616 121.444 459.436 118.394 456.346 108.994C453.256 99.5939 459.816 89.9339 456.346 80.9939C451.946 80.1039 446.866 76.9239 446.346 71.9939C427.676 71.9939 409.016 71.9939 390.346 71.9939C395.436 69.7239 402.506 71.6139 408.346 70.9939C408.306 70.9939 408.346 69.9939 408.346 69.9939C407.016 69.9939 405.676 69.9939 404.346 69.9939C400.276 69.9939 394.216 71.1539 390.346 69.9939C388.646 69.4839 387.196 67.3439 386.346 65.9939C375.496 66.0439 365.686 71.9839 359.346 80.9939C354.956 86.1339 348.206 90.7039 344.346 95.9939C343.816 96.8939 341.516 97.2139 342.346 98.9939C352.066 98.9039 361.436 97.3339 371.346 97.9939C375.766 98.4039 381.616 100.124 386.346 98.9939C391.076 97.8639 397.976 100.974 402.346 98.9939C404.456 83.1639 432.116 87.1539 430.346 103.994C428.576 120.834 403.906 120.344 402.346 104.994C396.736 102.574 384.556 104.994 378.346 104.994C362.346 104.994 346.346 104.994 330.346 104.994C335.866 95.8039 342.246 86.8239 351.346 79.9939C357.576 73.7639 358.656 72.5939 365.426 66.0739C372.206 59.5539 377.526 61.8139 386.346 61.9939C395.496 62.1739 403.256 62.4539 412.346 62.9939C421.436 63.5339 431.186 62.2439 440.346 62.9939C449.506 63.7439 446.296 51.7339 455.576 50.2239C464.856 48.7139 469.826 51.2439 473.116 60.2239C476.416 69.1939 467.596 73.1039 464.346 78.9939ZM417.346 164.994C417.306 165.494 417.346 165.994 417.346 165.994C419.976 169.544 417.156 174.544 420.346 177.994C425.856 182.304 430.116 186.474 427.566 194.214C425.016 201.954 417.466 203.594 410.346 200.994C400.536 197.414 400.976 180.884 411.346 177.994C414.516 153.104 385.266 131.124 362.346 138.994C370.276 144.744 380.566 150.494 384.346 159.994C385.636 164.074 384.716 168.124 384.346 171.994C384.346 181.494 385.176 192.314 383.346 200.994C373.386 190.804 384.626 167.264 375.596 157.744C366.566 148.234 356.716 137.554 343.346 137.994C329.976 138.434 307.166 134.704 296.096 141.744C285.036 148.784 279.756 159.434 269.346 166.994C269.526 154.154 280.326 143.044 291.596 135.244C302.866 127.434 328.156 132.754 342.346 131.994C356.536 131.234 380.476 129.014 392.046 136.294C403.606 143.584 413.886 152.364 417.346 164.994Z" stroke="black"/>
<path d="M638.145 443C613.715 469.23 576.875 477.94 541.815 476.33C506.755 474.72 478.805 459.03 454.395 432.75C429.985 406.46 424.175 367.15 424.145 332C424.115 296.85 406.065 267.47 380.895 244.25C355.725 221.03 314.055 209.72 280.155 216.01C246.255 222.3 220.395 238.58 200.065 266.92C179.725 295.26 179.255 342.32 189.825 374.32C200.395 406.32 215.695 431.32 239.395 455.75C263.085 480.18 283.435 496.97 313.465 512.68C343.495 528.39 378.695 539.97 414.135 543.01C449.575 546.05 497.575 541.43 530.075 529.93C562.565 518.42 588.095 505.01 614.895 483.75C641.705 462.49 654.225 439.26 674.395 412.25C694.555 385.24 705.415 352.91 712.215 319.07C719.025 285.24 718.075 234.52 708.455 201.69C698.825 168.87 685.605 139.8 666.065 113.08C646.525 86.36 627.455 66.22 600.845 47.3C574.225 28.39 544.385 11.74 512.145 6C538.515 31.56 557.185 54.44 565.155 90.99C573.125 127.54 564.975 172.35 545.915 203.77C526.855 235.19 501.195 246.21 475.895 271.75C450.595 297.3 444.195 346.97 455.835 380.31C467.485 413.65 490.635 436.99 524.075 450.07C557.505 463.16 605.915 459.65 638.145 443ZM627.145 82C660.395 115.25 681.185 150.83 696.145 194C702.045 211.01 705.725 229.45 707.145 248C707.235 247.63 708.585 246.16 709.145 246C709.145 260.33 709.145 274.67 709.145 289C707.275 287.86 708.535 284.87 708.145 283C707.985 284.39 707.305 287.02 707.145 289C703.805 330.39 692.745 376.7 665.145 409C660.415 414.53 654.955 420.68 649.145 425C631.005 438.49 611.165 449.65 588.145 451C596.615 447.91 605.415 443.73 613.845 439.7C622.265 435.66 629.435 430.42 636.845 424.7C644.245 418.97 649.735 412.69 655.395 405.25C661.065 397.81 665.805 390.46 669.915 381.77C674.035 373.09 677.385 364.12 681.065 354.92C684.755 345.72 689.275 336.37 690.145 326C691.015 315.63 696.175 304.77 696.125 293.98C696.065 283.18 698.855 267.67 697.145 257C695.435 246.33 698.175 231.42 689.145 227C674.175 229.8 653.155 227.07 638.145 227C623.135 226.93 616.505 237.13 606.895 246.75C597.285 256.38 589.985 262.59 580.895 271.75C571.805 280.91 564.685 288.86 555.145 297C554.165 297.84 553.745 299.86 552.145 300C547.535 294.61 554.175 290.21 558.145 287C570.475 272.57 585.925 261.3 598.145 247C601.765 242.77 605.875 237.62 610.395 234.25C614.915 230.87 618.475 223.6 623.145 221C628.465 218.04 639.965 220.47 646.145 220C652.325 219.53 664.905 219.76 670.145 220C675.385 220.24 691.865 218.45 692.145 221C692.645 221 693.145 221 693.145 221C691.455 209.5 685.445 196.38 682.145 185C678.835 180.97 666.545 182.79 661.145 183C655.745 183.21 642.295 180.59 639.145 185C637.795 191.62 635.995 192.83 630.065 195.92C624.145 199.02 618.985 194.38 614.145 195C607.905 197.86 604.345 207.34 598.895 211.75C593.445 216.16 589.175 223.75 583.895 228.75C578.625 233.76 573.465 240.14 568.895 245.75C564.325 251.36 558.015 256.92 553.895 262.75C549.775 268.58 541.595 273.34 538.895 279.75C536.195 286.17 540.815 297.47 530.895 301.75C520.975 306.03 512.515 301.21 511.145 292C509.785 282.79 518.315 274.1 527.145 276C535.975 277.9 538.575 268.74 544.445 263.3C550.325 257.87 554.485 252.19 559.445 246.3C564.405 240.42 570.205 234.56 575.145 229C581.215 222.17 588.795 214.33 594.445 207.3C600.105 200.27 612.305 192.77 611.145 184C609.795 173.85 610.005 166.74 621.215 164.07C632.435 161.41 633.995 172.88 641.145 176C647.265 177.68 654.915 174.82 661.145 176C667.375 177.18 675.795 175.43 678.145 174C669.925 164.99 666.825 149.88 658.895 140.25C650.955 130.63 645.225 118.72 636.895 109.25C628.565 99.78 620.695 90.24 611.145 82C586.825 61.01 558.545 46.98 537.145 22C570.275 35.89 601.555 55.35 627.145 82ZM400.145 519C477.965 532.42 554.435 505.02 619.145 467C573.505 510.68 516.785 529.97 454.145 534C391.505 538.03 325.675 516.16 277.395 478.75C229.115 441.34 194.745 393.54 190.145 333C186.585 267.45 244.445 217.45 307.145 221C369.845 224.55 417.535 279.7 415.145 340C401.285 292.66 370.375 248.36 319.145 237C267.915 225.65 207.945 263.61 203.815 317.67C199.685 371.73 228.845 416.53 266.395 452.75C303.945 488.97 350.595 509.03 400.145 519ZM584.145 331C583.335 345.96 584.755 361.03 584.145 376C588.605 379.12 598.935 373.95 604.145 376C609.355 378.05 614.475 373.1 617.395 369.25C620.315 365.39 622.455 361.72 626.395 358.25C630.335 354.78 628.865 348.77 632.895 344.75C636.935 340.74 642.665 339.74 647.835 342.31C653.015 344.87 654.335 349.75 655.145 355C657.075 367.48 639.935 372.01 631.145 364C626.645 370.36 623.495 371.75 618.395 378.25C613.295 384.75 603.205 382.91 595.145 383C587.085 383.09 576.115 382.66 568.145 383C560.175 383.34 548.485 380.56 543.895 386.75C539.295 392.93 533.225 396.74 526.465 393.68C519.715 390.61 515.135 382.67 517.475 375.33C519.815 367.99 523.825 364.2 532.165 363.02C540.505 361.85 541.525 373.22 548.175 374.97C554.825 376.73 568.825 373.71 576.145 375C576.145 362.33 576.145 349.67 576.145 337C554.645 336.33 531.825 338.33 511.145 336C506.065 339.48 505.315 349.14 496.145 348C486.975 346.85 483.195 344.45 480.175 336.97C477.145 329.5 481.335 322.11 486.395 318.25C491.455 314.39 502.815 313.78 505.895 321.25C508.975 328.71 514.815 331.53 524.145 330C533.475 328.47 541.975 330.8 551.145 330C560.315 329.2 569.015 330.6 578.145 330C575.405 319.14 586.265 312.54 592.895 305.75C599.535 298.96 605.475 292.36 612.145 286C608.195 277.42 614.575 266.17 624.145 266C633.725 265.84 641.245 275.19 636.225 285.08C631.195 294.96 621.055 287.75 614.395 291.25C607.735 294.75 602.105 303.12 597.225 309.08C592.355 315.04 582.645 321.93 584.145 331ZM325.145 311C333.585 312.21 345.975 306.98 349.145 317C355.325 336.55 346.595 361.4 350.145 382C358.375 380.58 362.495 383.89 371.145 382C379.795 380.11 381.005 386.73 380.145 394C379.285 401.27 379.125 406.68 383.145 412C400.415 426.76 416.605 443.69 433.145 459C442.285 454.12 453.465 456.84 458.065 466.08C462.675 475.31 453.275 485.1 446.065 487.92C438.865 490.75 424.325 483.38 426.165 473.98C428.015 464.57 424.555 457.9 415.895 452.25C407.245 446.59 405.665 440.23 397.395 434.75C389.125 429.27 387.795 422.96 378.895 417.25C369.995 411.53 372.735 397.13 371.145 388C365.485 384 347.405 393.53 344.845 383.3C342.275 373.07 345.215 362.33 344.145 352C343.075 341.67 345.575 331.33 343.815 321.33C342.055 311.33 325.935 312.62 324.145 321C323.085 331.92 327.475 346.62 324.145 357C327.295 357.45 338.655 355.19 335.365 361.22C332.075 367.26 322.585 354.91 323.155 366.01C323.715 377.11 322.405 389.84 323.145 401C323.885 412.16 330.665 412.61 338.375 420.77C346.085 428.93 357.565 437.61 365.145 446C377.985 433.41 399.655 450.24 389.225 465.08C378.795 479.92 353.795 466.95 361.145 450C349.095 441.76 345.525 432.73 332.895 424.25C320.265 415.77 314.065 400.2 318.145 384C310.475 384 302.815 384 295.145 384C295.145 387 295.145 390 295.145 393C286.815 393 278.475 393 270.145 393C270.145 381 270.145 369 270.145 357C278.475 357 286.815 357 295.145 357C295.145 363.67 295.145 370.33 295.145 377C302.785 377.46 310.895 375.96 318.145 378C318.145 366.33 318.145 354.67 318.145 343C318.145 324.67 318.145 306.33 318.145 288C307.915 287.35 298.445 288.86 288.145 288C277.845 287.14 277.005 294.61 269.895 300.75C262.775 306.88 269.575 314.65 268.815 322.67C268.055 330.69 259.095 336.69 251.145 336C243.195 335.31 237.255 328.33 235.175 320.98C233.085 313.62 237.935 304.33 246.145 303C248.655 302.29 251.975 301.5 255.145 302C259.565 302.7 259.015 303.11 263.145 302C266.465 299.17 268.345 293.62 271.895 290.75C275.445 287.88 277.235 280.75 283.145 282C289.065 283.26 297.515 280.26 303.145 282C308.775 283.74 319.525 278.77 324.145 282C326.745 283.82 325.145 292.53 325.145 296C325.145 299.47 326.265 307.51 325.145 311Z" fill="black" fill-opacity="0.2"/>
<path d="M638.145 443C613.715 469.23 576.875 477.94 541.815 476.33C506.755 474.72 478.805 459.03 454.395 432.75C429.985 406.46 424.175 367.15 424.145 332C424.115 296.85 406.065 267.47 380.895 244.25C355.725 221.03 314.055 209.72 280.155 216.01C246.255 222.3 220.395 238.58 200.065 266.92C179.725 295.26 179.255 342.32 189.825 374.32C200.395 406.32 215.695 431.32 239.395 455.75C263.085 480.18 283.435 496.97 313.465 512.68C343.495 528.39 378.695 539.97 414.135 543.01C449.575 546.05 497.575 541.43 530.075 529.93C562.565 518.42 588.095 505.01 614.895 483.75C641.705 462.49 654.225 439.26 674.395 412.25C694.555 385.24 705.415 352.91 712.215 319.07C719.025 285.24 718.075 234.52 708.455 201.69C698.825 168.87 685.605 139.8 666.065 113.08C646.525 86.36 627.455 66.22 600.845 47.3C574.225 28.39 544.385 11.74 512.145 6C538.515 31.56 557.185 54.44 565.155 90.99C573.125 127.54 564.975 172.35 545.915 203.77C526.855 235.19 501.195 246.21 475.895 271.75C450.595 297.3 444.195 346.97 455.835 380.31C467.485 413.65 490.635 436.99 524.075 450.07C557.505 463.16 605.915 459.65 638.145 443ZM627.145 82C660.395 115.25 681.185 150.83 696.145 194C702.045 211.01 705.725 229.45 707.145 248C707.235 247.63 708.585 246.16 709.145 246C709.145 260.33 709.145 274.67 709.145 289C707.275 287.86 708.535 284.87 708.145 283C707.985 284.39 707.305 287.02 707.145 289C703.805 330.39 692.745 376.7 665.145 409C660.415 414.53 654.955 420.68 649.145 425C631.005 438.49 611.165 449.65 588.145 451C596.615 447.91 605.415 443.73 613.845 439.7C622.265 435.66 629.435 430.42 636.845 424.7C644.245 418.97 649.735 412.69 655.395 405.25C661.065 397.81 665.805 390.46 669.915 381.77C674.035 373.09 677.385 364.12 681.065 354.92C684.755 345.72 689.275 336.37 690.145 326C691.015 315.63 696.175 304.77 696.125 293.98C696.065 283.18 698.855 267.67 697.145 257C695.435 246.33 698.175 231.42 689.145 227C674.175 229.8 653.155 227.07 638.145 227C623.135 226.93 616.505 237.13 606.895 246.75C597.285 256.38 589.985 262.59 580.895 271.75C571.805 280.91 564.685 288.86 555.145 297C554.165 297.84 553.745 299.86 552.145 300C547.535 294.61 554.175 290.21 558.145 287C570.475 272.57 585.925 261.3 598.145 247C601.765 242.77 605.875 237.62 610.395 234.25C614.915 230.87 618.475 223.6 623.145 221C628.465 218.04 639.965 220.47 646.145 220C652.325 219.53 664.905 219.76 670.145 220C675.385 220.24 691.865 218.45 692.145 221C692.645 221 693.145 221 693.145 221C691.455 209.5 685.445 196.38 682.145 185C678.835 180.97 666.545 182.79 661.145 183C655.745 183.21 642.295 180.59 639.145 185C637.795 191.62 635.995 192.83 630.065 195.92C624.145 199.02 618.985 194.38 614.145 195C607.905 197.86 604.345 207.34 598.895 211.75C593.445 216.16 589.175 223.75 583.895 228.75C578.625 233.76 573.465 240.14 568.895 245.75C564.325 251.36 558.015 256.92 553.895 262.75C549.775 268.58 541.595 273.34 538.895 279.75C536.195 286.17 540.815 297.47 530.895 301.75C520.975 306.03 512.515 301.21 511.145 292C509.785 282.79 518.315 274.1 527.145 276C535.975 277.9 538.575 268.74 544.445 263.3C550.325 257.87 554.485 252.19 559.445 246.3C564.405 240.42 570.205 234.56 575.145 229C581.215 222.17 588.795 214.33 594.445 207.3C600.105 200.27 612.305 192.77 611.145 184C609.795 173.85 610.005 166.74 621.215 164.07C632.435 161.41 633.995 172.88 641.145 176C647.265 177.68 654.915 174.82 661.145 176C667.375 177.18 675.795 175.43 678.145 174C669.925 164.99 666.825 149.88 658.895 140.25C650.955 130.63 645.225 118.72 636.895 109.25C628.565 99.78 620.695 90.24 611.145 82C586.825 61.01 558.545 46.98 537.145 22C570.275 35.89 601.555 55.35 627.145 82ZM400.145 519C477.965 532.42 554.435 505.02 619.145 467C573.505 510.68 516.785 529.97 454.145 534C391.505 538.03 325.675 516.16 277.395 478.75C229.115 441.34 194.745 393.54 190.145 333C186.585 267.45 244.445 217.45 307.145 221C369.845 224.55 417.535 279.7 415.145 340C401.285 292.66 370.375 248.36 319.145 237C267.915 225.65 207.945 263.61 203.815 317.67C199.685 371.73 228.845 416.53 266.395 452.75C303.945 488.97 350.595 509.03 400.145 519ZM584.145 331C583.335 345.96 584.755 361.03 584.145 376C588.605 379.12 598.935 373.95 604.145 376C609.355 378.05 614.475 373.1 617.395 369.25C620.315 365.39 622.455 361.72 626.395 358.25C630.335 354.78 628.865 348.77 632.895 344.75C636.935 340.74 642.665 339.74 647.835 342.31C653.015 344.87 654.335 349.75 655.145 355C657.075 367.48 639.935 372.01 631.145 364C626.645 370.36 623.495 371.75 618.395 378.25C613.295 384.75 603.205 382.91 595.145 383C587.085 383.09 576.115 382.66 568.145 383C560.175 383.34 548.485 380.56 543.895 386.75C539.295 392.93 533.225 396.74 526.465 393.68C519.715 390.61 515.135 382.67 517.475 375.33C519.815 367.99 523.825 364.2 532.165 363.02C540.505 361.85 541.525 373.22 548.175 374.97C554.825 376.73 568.825 373.71 576.145 375C576.145 362.33 576.145 349.67 576.145 337C554.645 336.33 531.825 338.33 511.145 336C506.065 339.48 505.315 349.14 496.145 348C486.975 346.85 483.195 344.45 480.175 336.97C477.145 329.5 481.335 322.11 486.395 318.25C491.455 314.39 502.815 313.78 505.895 321.25C508.975 328.71 514.815 331.53 524.145 330C533.475 328.47 541.975 330.8 551.145 330C560.315 329.2 569.015 330.6 578.145 330C575.405 319.14 586.265 312.54 592.895 305.75C599.535 298.96 605.475 292.36 612.145 286C608.195 277.42 614.575 266.17 624.145 266C633.725 265.84 641.245 275.19 636.225 285.08C631.195 294.96 621.055 287.75 614.395 291.25C607.735 294.75 602.105 303.12 597.225 309.08C592.355 315.04 582.645 321.93 584.145 331ZM325.145 311C333.585 312.21 345.975 306.98 349.145 317C355.325 336.55 346.595 361.4 350.145 382C358.375 380.58 362.495 383.89 371.145 382C379.795 380.11 381.005 386.73 380.145 394C379.285 401.27 379.125 406.68 383.145 412C400.415 426.76 416.605 443.69 433.145 459C442.285 454.12 453.465 456.84 458.065 466.08C462.675 475.31 453.275 485.1 446.065 487.92C438.865 490.75 424.325 483.38 426.165 473.98C428.015 464.57 424.555 457.9 415.895 452.25C407.245 446.59 405.665 440.23 397.395 434.75C389.125 429.27 387.795 422.96 378.895 417.25C369.995 411.53 372.735 397.13 371.145 388C365.485 384 347.405 393.53 344.845 383.3C342.275 373.07 345.215 362.33 344.145 352C343.075 341.67 345.575 331.33 343.815 321.33C342.055 311.33 325.935 312.62 324.145 321C323.085 331.92 327.475 346.62 324.145 357C327.295 357.45 338.655 355.19 335.365 361.22C332.075 367.26 322.585 354.91 323.155 366.01C323.715 377.11 322.405 389.84 323.145 401C323.885 412.16 330.665 412.61 338.375 420.77C346.085 428.93 357.565 437.61 365.145 446C377.985 433.41 399.655 450.24 389.225 465.08C378.795 479.92 353.795 466.95 361.145 450C349.095 441.76 345.525 432.73 332.895 424.25C320.265 415.77 314.065 400.2 318.145 384C310.475 384 302.815 384 295.145 384C295.145 387 295.145 390 295.145 393C286.815 393 278.475 393 270.145 393C270.145 381 270.145 369 270.145 357C278.475 357 286.815 357 295.145 357C295.145 363.67 295.145 370.33 295.145 377C302.785 377.46 310.895 375.96 318.145 378C318.145 366.33 318.145 354.67 318.145 343C318.145 324.67 318.145 306.33 318.145 288C307.915 287.35 298.445 288.86 288.145 288C277.845 287.14 277.005 294.61 269.895 300.75C262.775 306.88 269.575 314.65 268.815 322.67C268.055 330.69 259.095 336.69 251.145 336C243.195 335.31 237.255 328.33 235.175 320.98C233.085 313.62 237.935 304.33 246.145 303C248.655 302.29 251.975 301.5 255.145 302C259.565 302.7 259.015 303.11 263.145 302C266.465 299.17 268.345 293.62 271.895 290.75C275.445 287.88 277.235 280.75 283.145 282C289.065 283.26 297.515 280.26 303.145 282C308.775 283.74 319.525 278.77 324.145 282C326.745 283.82 325.145 292.53 325.145 296C325.145 299.47 326.265 307.51 325.145 311Z" fill="url(#paint1_linear_6_7730)"/>
<path d="M638.145 443C613.715 469.23 576.875 477.94 541.815 476.33C506.755 474.72 478.805 459.03 454.395 432.75C429.985 406.46 424.175 367.15 424.145 332C424.115 296.85 406.065 267.47 380.895 244.25C355.725 221.03 314.055 209.72 280.155 216.01C246.255 222.3 220.395 238.58 200.065 266.92C179.725 295.26 179.255 342.32 189.825 374.32C200.395 406.32 215.695 431.32 239.395 455.75C263.085 480.18 283.435 496.97 313.465 512.68C343.495 528.39 378.695 539.97 414.135 543.01C449.575 546.05 497.575 541.43 530.075 529.93C562.565 518.42 588.095 505.01 614.895 483.75C641.705 462.49 654.225 439.26 674.395 412.25C694.555 385.24 705.415 352.91 712.215 319.07C719.025 285.24 718.075 234.52 708.455 201.69C698.825 168.87 685.605 139.8 666.065 113.08C646.525 86.36 627.455 66.22 600.845 47.3C574.225 28.39 544.385 11.74 512.145 6C538.515 31.56 557.185 54.44 565.155 90.99C573.125 127.54 564.975 172.35 545.915 203.77C526.855 235.19 501.195 246.21 475.895 271.75C450.595 297.3 444.195 346.97 455.835 380.31C467.485 413.65 490.635 436.99 524.075 450.07C557.505 463.16 605.915 459.65 638.145 443ZM627.145 82C660.395 115.25 681.185 150.83 696.145 194C702.045 211.01 705.725 229.45 707.145 248C707.235 247.63 708.585 246.16 709.145 246C709.145 260.33 709.145 274.67 709.145 289C707.275 287.86 708.535 284.87 708.145 283C707.985 284.39 707.305 287.02 707.145 289C703.805 330.39 692.745 376.7 665.145 409C660.415 414.53 654.955 420.68 649.145 425C631.005 438.49 611.165 449.65 588.145 451C596.615 447.91 605.415 443.73 613.845 439.7C622.265 435.66 629.435 430.42 636.845 424.7C644.245 418.97 649.735 412.69 655.395 405.25C661.065 397.81 665.805 390.46 669.915 381.77C674.035 373.09 677.385 364.12 681.065 354.92C684.755 345.72 689.275 336.37 690.145 326C691.015 315.63 696.175 304.77 696.125 293.98C696.065 283.18 698.855 267.67 697.145 257C695.435 246.33 698.175 231.42 689.145 227C674.175 229.8 653.155 227.07 638.145 227C623.135 226.93 616.505 237.13 606.895 246.75C597.285 256.38 589.985 262.59 580.895 271.75C571.805 280.91 564.685 288.86 555.145 297C554.165 297.84 553.745 299.86 552.145 300C547.535 294.61 554.175 290.21 558.145 287C570.475 272.57 585.925 261.3 598.145 247C601.765 242.77 605.875 237.62 610.395 234.25C614.915 230.87 618.475 223.6 623.145 221C628.465 218.04 639.965 220.47 646.145 220C652.325 219.53 664.905 219.76 670.145 220C675.385 220.24 691.865 218.45 692.145 221C692.645 221 693.145 221 693.145 221C691.455 209.5 685.445 196.38 682.145 185C678.835 180.97 666.545 182.79 661.145 183C655.745 183.21 642.295 180.59 639.145 185C637.795 191.62 635.995 192.83 630.065 195.92C624.145 199.02 618.985 194.38 614.145 195C607.905 197.86 604.345 207.34 598.895 211.75C593.445 216.16 589.175 223.75 583.895 228.75C578.625 233.76 573.465 240.14 568.895 245.75C564.325 251.36 558.015 256.92 553.895 262.75C549.775 268.58 541.595 273.34 538.895 279.75C536.195 286.17 540.815 297.47 530.895 301.75C520.975 306.03 512.515 301.21 511.145 292C509.785 282.79 518.315 274.1 527.145 276C535.975 277.9 538.575 268.74 544.445 263.3C550.325 257.87 554.485 252.19 559.445 246.3C564.405 240.42 570.205 234.56 575.145 229C581.215 222.17 588.795 214.33 594.445 207.3C600.105 200.27 612.305 192.77 611.145 184C609.795 173.85 610.005 166.74 621.215 164.07C632.435 161.41 633.995 172.88 641.145 176C647.265 177.68 654.915 174.82 661.145 176C667.375 177.18 675.795 175.43 678.145 174C669.925 164.99 666.825 149.88 658.895 140.25C650.955 130.63 645.225 118.72 636.895 109.25C628.565 99.78 620.695 90.24 611.145 82C586.825 61.01 558.545 46.98 537.145 22C570.275 35.89 601.555 55.35 627.145 82ZM400.145 519C477.965 532.42 554.435 505.02 619.145 467C573.505 510.68 516.785 529.97 454.145 534C391.505 538.03 325.675 516.16 277.395 478.75C229.115 441.34 194.745 393.54 190.145 333C186.585 267.45 244.445 217.45 307.145 221C369.845 224.55 417.535 279.7 415.145 340C401.285 292.66 370.375 248.36 319.145 237C267.915 225.65 207.945 263.61 203.815 317.67C199.685 371.73 228.845 416.53 266.395 452.75C303.945 488.97 350.595 509.03 400.145 519ZM584.145 331C583.335 345.96 584.755 361.03 584.145 376C588.605 379.12 598.935 373.95 604.145 376C609.355 378.05 614.475 373.1 617.395 369.25C620.315 365.39 622.455 361.72 626.395 358.25C630.335 354.78 628.865 348.77 632.895 344.75C636.935 340.74 642.665 339.74 647.835 342.31C653.015 344.87 654.335 349.75 655.145 355C657.075 367.48 639.935 372.01 631.145 364C626.645 370.36 623.495 371.75 618.395 378.25C613.295 384.75 603.205 382.91 595.145 383C587.085 383.09 576.115 382.66 568.145 383C560.175 383.34 548.485 380.56 543.895 386.75C539.295 392.93 533.225 396.74 526.465 393.68C519.715 390.61 515.135 382.67 517.475 375.33C519.815 367.99 523.825 364.2 532.165 363.02C540.505 361.85 541.525 373.22 548.175 374.97C554.825 376.73 568.825 373.71 576.145 375C576.145 362.33 576.145 349.67 576.145 337C554.645 336.33 531.825 338.33 511.145 336C506.065 339.48 505.315 349.14 496.145 348C486.975 346.85 483.195 344.45 480.175 336.97C477.145 329.5 481.335 322.11 486.395 318.25C491.455 314.39 502.815 313.78 505.895 321.25C508.975 328.71 514.815 331.53 524.145 330C533.475 328.47 541.975 330.8 551.145 330C560.315 329.2 569.015 330.6 578.145 330C575.405 319.14 586.265 312.54 592.895 305.75C599.535 298.96 605.475 292.36 612.145 286C608.195 277.42 614.575 266.17 624.145 266C633.725 265.84 641.245 275.19 636.225 285.08C631.195 294.96 621.055 287.75 614.395 291.25C607.735 294.75 602.105 303.12 597.225 309.08C592.355 315.04 582.645 321.93 584.145 331ZM325.145 311C333.585 312.21 345.975 306.98 349.145 317C355.325 336.55 346.595 361.4 350.145 382C358.375 380.58 362.495 383.89 371.145 382C379.795 380.11 381.005 386.73 380.145 394C379.285 401.27 379.125 406.68 383.145 412C400.415 426.76 416.605 443.69 433.145 459C442.285 454.12 453.465 456.84 458.065 466.08C462.675 475.31 453.275 485.1 446.065 487.92C438.865 490.75 424.325 483.38 426.165 473.98C428.015 464.57 424.555 457.9 415.895 452.25C407.245 446.59 405.665 440.23 397.395 434.75C389.125 429.27 387.795 422.96 378.895 417.25C369.995 411.53 372.735 397.13 371.145 388C365.485 384 347.405 393.53 344.845 383.3C342.275 373.07 345.215 362.33 344.145 352C343.075 341.67 345.575 331.33 343.815 321.33C342.055 311.33 325.935 312.62 324.145 321C323.085 331.92 327.475 346.62 324.145 357C327.295 357.45 338.655 355.19 335.365 361.22C332.075 367.26 322.585 354.91 323.155 366.01C323.715 377.11 322.405 389.84 323.145 401C323.885 412.16 330.665 412.61 338.375 420.77C346.085 428.93 357.565 437.61 365.145 446C377.985 433.41 399.655 450.24 389.225 465.08C378.795 479.92 353.795 466.95 361.145 450C349.095 441.76 345.525 432.73 332.895 424.25C320.265 415.77 314.065 400.2 318.145 384C310.475 384 302.815 384 295.145 384C295.145 387 295.145 390 295.145 393C286.815 393 278.475 393 270.145 393C270.145 381 270.145 369 270.145 357C278.475 357 286.815 357 295.145 357C295.145 363.67 295.145 370.33 295.145 377C302.785 377.46 310.895 375.96 318.145 378C318.145 366.33 318.145 354.67 318.145 343C318.145 324.67 318.145 306.33 318.145 288C307.915 287.35 298.445 288.86 288.145 288C277.845 287.14 277.005 294.61 269.895 300.75C262.775 306.88 269.575 314.65 268.815 322.67C268.055 330.69 259.095 336.69 251.145 336C243.195 335.31 237.255 328.33 235.175 320.98C233.085 313.62 237.935 304.33 246.145 303C248.655 302.29 251.975 301.5 255.145 302C259.565 302.7 259.015 303.11 263.145 302C266.465 299.17 268.345 293.62 271.895 290.75C275.445 287.88 277.235 280.75 283.145 282C289.065 283.26 297.515 280.26 303.145 282C308.775 283.74 319.525 278.77 324.145 282C326.745 283.82 325.145 292.53 325.145 296C325.145 299.47 326.265 307.51 325.145 311Z" stroke="black"/>
<g filter="url(#filter0_d_6_7730)">
<path d="M264.938 608.219C264.938 610.625 264.625 612.797 264 614.734C263.406 616.641 262.609 618.328 261.609 619.797C260.609 621.266 259.438 622.516 258.094 623.547C256.75 624.578 255.359 625.422 253.922 626.078C252.484 626.734 251.016 627.219 249.516 627.531C248.047 627.844 246.656 628 245.344 628H198.328V615.812H245.344C247.688 615.812 249.5 615.125 250.781 613.75C252.094 612.375 252.75 610.531 252.75 608.219C252.75 607.094 252.578 606.062 252.234 605.125C251.891 604.188 251.391 603.375 250.734 602.688C250.109 602 249.328 601.469 248.391 601.094C247.484 600.719 246.469 600.531 245.344 600.531H217.312C215.344 600.531 213.219 600.188 210.938 599.5C208.656 598.781 206.531 597.641 204.562 596.078C202.625 594.516 201 592.469 199.688 589.938C198.406 587.406 197.766 584.312 197.766 580.656C197.766 577 198.406 573.922 199.688 571.422C201 568.891 202.625 566.844 204.562 565.281C206.531 563.688 208.656 562.547 210.938 561.859C213.219 561.141 215.344 560.781 217.312 560.781H258.797V572.969H217.312C215 572.969 213.188 573.672 211.875 575.078C210.594 576.484 209.953 578.344 209.953 580.656C209.953 583 210.594 584.859 211.875 586.234C213.188 587.578 215 588.25 217.312 588.25H245.344H245.438C246.75 588.281 248.141 588.469 249.609 588.812C251.078 589.125 252.531 589.625 253.969 590.312C255.438 591 256.828 591.875 258.141 592.938C259.453 593.969 260.609 595.219 261.609 596.688C262.641 598.156 263.453 599.844 264.047 601.75C264.641 603.656 264.938 605.812 264.938 608.219ZM341.016 628H328.828V611.5H285.984V628H273.797V594.391C273.797 589.484 274.641 584.969 276.328 580.844C278.016 576.719 280.359 573.172 283.359 570.203C286.359 567.234 289.906 564.922 294 563.266C298.094 561.609 302.562 560.781 307.406 560.781H334.875C335.719 560.781 336.516 560.938 337.266 561.25C338.016 561.562 338.672 562 339.234 562.562C339.797 563.125 340.234 563.781 340.547 564.531C340.859 565.281 341.016 566.078 341.016 566.922V628ZM285.984 599.312H328.828V572.969H307.406C307.031 572.969 306.234 573.031 305.016 573.156C303.828 573.25 302.438 573.516 300.844 573.953C299.281 574.391 297.625 575.062 295.875 575.969C294.125 576.875 292.516 578.125 291.047 579.719C289.578 581.312 288.359 583.312 287.391 585.719C286.453 588.094 285.984 590.984 285.984 594.391V599.312ZM433.453 628H421.172V587.969L399.562 625.984C399.031 626.953 398.281 627.688 397.312 628.188C396.375 628.688 395.359 628.938 394.266 628.938C393.203 628.938 392.203 628.688 391.266 628.188C390.359 627.688 389.641 626.953 389.109 625.984L367.406 587.969V628H355.219V565.984C355.219 564.578 355.625 563.328 356.438 562.234C357.281 561.141 358.375 560.406 359.719 560.031C360.375 559.875 361.031 559.828 361.688 559.891C362.344 559.922 362.969 560.062 363.562 560.312C364.188 560.531 364.75 560.859 365.25 561.297C365.75 561.703 366.172 562.203 366.516 562.797L394.266 611.031L422.016 562.797C422.734 561.609 423.719 560.766 424.969 560.266C426.25 559.766 427.578 559.688 428.953 560.031C430.266 560.406 431.344 561.141 432.188 562.234C433.031 563.328 433.453 564.578 433.453 565.984V628ZM513.516 621.859C513.516 622.734 513.359 623.547 513.047 624.297C512.734 625.047 512.297 625.703 511.734 626.266C511.172 626.797 510.516 627.219 509.766 627.531C509.016 627.844 508.219 628 507.375 628H479.906C477.312 628 474.688 627.719 472.031 627.156C469.375 626.594 466.797 625.734 464.297 624.578C461.828 623.391 459.5 621.891 457.312 620.078C455.125 618.266 453.203 616.125 451.547 613.656C449.922 611.156 448.641 608.312 447.703 605.125C446.766 601.906 446.297 598.328 446.297 594.391V560.781H458.484V594.391C458.484 597.828 458.953 600.734 459.891 603.109C460.859 605.484 462.078 607.469 463.547 609.062C465.016 610.656 466.625 611.906 468.375 612.812C470.125 613.719 471.781 614.391 473.344 614.828C474.938 615.266 476.328 615.547 477.516 615.672C478.734 615.766 479.531 615.812 479.906 615.812H501.328V560.781H513.516V621.859ZM594.891 583.375C594.891 586.156 594.547 588.641 593.859 590.828C593.172 593.016 592.234 594.953 591.047 596.641C589.891 598.297 588.547 599.719 587.016 600.906C585.484 602.094 583.875 603.078 582.188 603.859C580.531 604.609 578.844 605.156 577.125 605.5C575.438 605.844 573.844 606.016 572.344 606.016L597.797 628H578.953L553.547 606.016H544.781V593.828H572.344C573.875 593.703 575.266 593.391 576.516 592.891C577.797 592.359 578.891 591.656 579.797 590.781C580.734 589.906 581.453 588.859 581.953 587.641C582.453 586.391 582.703 584.969 582.703 583.375V575.688C582.703 575 582.609 574.484 582.422 574.141C582.266 573.766 582.047 573.5 581.766 573.344C581.516 573.156 581.234 573.047 580.922 573.016C580.641 572.984 580.375 572.969 580.125 572.969H539.906V628H527.719V566.922C527.719 566.078 527.875 565.281 528.188 564.531C528.5 563.781 528.922 563.125 529.453 562.562C530.016 562 530.672 561.562 531.422 561.25C532.172 560.938 532.984 560.781 533.859 560.781H580.125C582.844 560.781 585.141 561.281 587.016 562.281C588.891 563.25 590.406 564.484 591.562 565.984C592.75 567.453 593.594 569.047 594.094 570.766C594.625 572.484 594.891 574.094 594.891 575.594V583.375ZM673.078 628H660.891V611.5H618.047V628H605.859V594.391C605.859 589.484 606.703 584.969 608.391 580.844C610.078 576.719 612.422 573.172 615.422 570.203C618.422 567.234 621.969 564.922 626.062 563.266C630.156 561.609 634.625 560.781 639.469 560.781H666.938C667.781 560.781 668.578 560.938 669.328 561.25C670.078 561.562 670.734 562 671.297 562.562C671.859 563.125 672.297 563.781 672.609 564.531C672.922 565.281 673.078 566.078 673.078 566.922V628ZM618.047 599.312H660.891V572.969H639.469C639.094 572.969 638.297 573.031 637.078 573.156C635.891 573.25 634.5 573.516 632.906 573.953C631.344 574.391 629.688 575.062 627.938 575.969C626.188 576.875 624.578 578.125 623.109 579.719C621.641 581.312 620.422 583.312 619.453 585.719C618.516 588.094 618.047 590.984 618.047 594.391V599.312ZM699.562 628H687.375V560.781H699.562V628ZM370.266 672.969H343.406V728H331.219V672.969H304.312V660.781H370.266V672.969ZM434.531 700.531H396.047V688.25H434.531V700.531ZM440.016 728H396.047C394.359 728 392.516 727.703 390.516 727.109C388.516 726.516 386.656 725.547 384.938 724.203C383.25 722.828 381.828 721.062 380.672 718.906C379.547 716.719 378.984 714.047 378.984 710.891V666.922C378.984 666.078 379.141 665.281 379.453 664.531C379.766 663.781 380.188 663.125 380.719 662.562C381.281 662 381.938 661.562 382.688 661.25C383.438 660.938 384.25 660.781 385.125 660.781H440.016V672.969H391.172V710.891C391.172 712.484 391.594 713.703 392.438 714.547C393.281 715.391 394.516 715.812 396.141 715.812H440.016V728ZM511.547 728H467.578C466.453 728 465.234 727.875 463.922 727.625C462.641 727.344 461.359 726.922 460.078 726.359C458.828 725.797 457.625 725.078 456.469 724.203C455.312 723.297 454.281 722.219 453.375 720.969C452.5 719.688 451.797 718.219 451.266 716.562C450.734 714.875 450.469 712.984 450.469 710.891V677.891C450.469 676.766 450.594 675.562 450.844 674.281C451.125 672.969 451.547 671.688 452.109 670.438C452.672 669.156 453.406 667.938 454.312 666.781C455.219 665.625 456.297 664.609 457.547 663.734C458.828 662.828 460.297 662.109 461.953 661.578C463.609 661.047 465.484 660.781 467.578 660.781H511.547V672.969H467.578C465.984 672.969 464.766 673.391 463.922 674.234C463.078 675.078 462.656 676.328 462.656 677.984V710.891C462.656 712.453 463.078 713.672 463.922 714.547C464.797 715.391 466.016 715.812 467.578 715.812H511.547V728ZM535.359 688.25H578.156V660.781H590.344V728H578.156V700.531H535.359V728H523.172V660.781H535.359V688.25Z" fill="url(#paint2_linear_6_7730)"/>
</g>
<defs>
<filter id="filter0_d_6_7730" x="193.766" y="559.516" width="509.797" height="176.484" filterUnits="userSpaceOnUse" color-interpolation-filters="sRGB">
<feFlood flood-opacity="0" result="BackgroundImageFix"/>
<feColorMatrix in="SourceAlpha" type="matrix" values="0 0 0 0 0 0 0 0 0 0 0 0 0 0 0 0 0 0 127 0" result="hardAlpha"/>
<feOffset dy="4"/>
<feGaussianBlur stdDeviation="2"/>
<feComposite in2="hardAlpha" operator="out"/>
<feColorMatrix type="matrix" values="0 0 0 0 0 0 0 0 0 0 0 0 0 0 0 0 0 0 0.25 0"/>
<feBlend mode="normal" in2="BackgroundImageFix" result="effect1_dropShadow_6_7730"/>
<feBlend mode="normal" in="SourceGraphic" in2="effect1_dropShadow_6_7730" result="shape"/>
</filter>
<linearGradient id="paint0_linear_6_7730" x1="239.32" y1="61.5233" x2="453.436" y2="313.359" gradientUnits="userSpaceOnUse">
<stop offset="0.0625" stop-color="#002851"/>
<stop offset="0.610577" stop-color="#00C6F3"/>
<stop offset="1" stop-color="#005AB7"/>
</linearGradient>
<linearGradient id="paint1_linear_6_7730" x1="283.789" y1="111.024" x2="659.299" y2="460.902" gradientUnits="userSpaceOnUse">
<stop offset="0.0625" stop-color="#002851"/>
<stop offset="0.610577" stop-color="#00C6F3"/>
<stop offset="1" stop-color="#005AB7"/>
</linearGradient>
<linearGradient id="paint2_linear_6_7730" x1="248" y1="572.5" x2="645.351" y2="687.532" gradientUnits="userSpaceOnUse">
<stop stop-color="#00A2EA"/>
<stop offset="0.592961" stop-color="#00C6F3"/>
<stop offset="1" stop-color="#005D99"/>
</linearGradient>
</defs>
</svg>
