<svg width="900" height="736" viewBox="0 0 900 736" fill="none" xmlns="http://www.w3.org/2000/svg">
<path d="M179.346 310.994C184.126 296.554 188.056 278.334 195.036 264.684C202.026 251.044 207.856 238.134 218.096 226.744C228.346 215.354 238.246 206.664 250.596 198.244C262.946 189.824 279.026 183.514 293.676 180.324C308.326 177.134 334.146 171.744 343.046 185.294C351.936 198.854 363.456 204.564 375.266 215.074C387.066 225.594 399.346 230.474 413.656 237.684C427.956 244.904 451.176 245.334 467.326 242.974C483.466 240.604 497.186 233.524 510.656 225.304C524.116 217.074 532.326 208.224 541.596 195.244C550.866 182.254 556.396 167.984 560.416 152.064C564.446 136.154 563.786 112.944 560.346 96.9939C556.906 81.0439 552.256 66.2639 543.096 53.2439C533.936 40.2139 525.856 31.6439 512.576 22.7639C499.296 13.8839 484.936 9.1439 469.016 5.3239C453.096 1.5039 429.326 -0.416102 412.566 2.2139C395.806 4.8439 377.616 7.5639 362.416 13.0639C347.226 18.5739 333.026 23.7039 319.426 31.0739C305.816 38.4339 294.266 45.7439 282.596 55.2439C270.916 64.7339 260.326 72.4639 250.096 83.7439C239.876 95.0339 230.856 105.504 222.646 118.294C214.446 131.094 206.976 142.814 200.656 157.304C194.326 171.784 188.546 185.934 184.326 201.974C180.096 218.004 176.626 236.324 175.346 253.994C174.066 271.664 176.546 293.844 179.346 310.994ZM548.346 82.9939C558.626 110.844 558.516 141.214 547.346 168.994C543.986 177.344 539.216 184.674 534.346 191.994C523.966 207.604 509.056 219.694 492.346 226.994C479.676 232.524 465.626 236.024 451.346 236.994C445.526 237.394 439.886 236.804 434.346 235.994C420.556 233.974 406.436 229.394 395.346 220.994C409.266 228.304 425.086 229.964 441.346 228.994C444.516 228.824 447.236 228.494 450.346 227.994C466.416 225.434 481.346 221.664 495.346 212.994C514.806 200.944 528.686 180.834 537.346 160.994C551.506 128.564 544.186 89.8139 524.096 61.2439C503.996 32.6839 467.906 22.9939 434.346 22.9939C429.676 22.9939 425.016 22.9939 420.346 22.9939C403.726 22.9939 386.746 25.9939 371.346 30.9939C360.946 34.3739 349.606 39.5139 339.346 43.9939C323.126 51.0739 306.476 62.1639 292.346 72.9939C275.336 91.5739 254.776 103.684 241.596 126.244C228.416 148.794 214.086 170.124 206.416 196.064C198.756 222.014 193.096 253.134 184.346 278.994C180.656 197.954 216.856 115.724 283.346 65.9939C303.516 50.8439 322.316 38.9339 345.346 28.9939C361.806 21.8939 377.586 16.0539 395.346 12.9939C458.176 2.1639 524.806 19.2339 548.346 82.9939ZM473.346 78.9939C475.956 88.6039 473.296 102.904 474.346 112.994C475.396 123.084 486.726 127.354 482.346 136.994C479.226 143.864 472.166 147.594 465.126 145.214C458.076 142.844 451.936 134.404 456.276 127.924C460.616 121.444 468.436 118.394 465.346 108.994C462.256 99.5939 468.816 89.9339 465.346 80.9939C460.946 80.1039 455.866 76.9239 455.346 71.9939C436.676 71.9939 418.016 71.9939 399.346 71.9939C404.436 69.7239 411.506 71.6139 417.346 70.9939C417.306 70.9939 417.346 69.9939 417.346 69.9939C416.016 69.9939 414.676 69.9939 413.346 69.9939C409.276 69.9939 403.216 71.1539 399.346 69.9939C397.646 69.4839 396.196 67.3439 395.346 65.9939C384.496 66.0439 374.686 71.9839 368.346 80.9939C363.956 86.1339 357.206 90.7039 353.346 95.9939C352.816 96.8939 350.516 97.2139 351.346 98.9939C361.066 98.9039 370.436 97.3339 380.346 97.9939C384.766 98.4039 390.616 100.124 395.346 98.9939C400.076 97.8639 406.976 100.974 411.346 98.9939C413.456 83.1639 441.116 87.1539 439.346 103.994C437.576 120.834 412.906 120.344 411.346 104.994C405.736 102.574 393.556 104.994 387.346 104.994C371.346 104.994 355.346 104.994 339.346 104.994C344.866 95.8039 351.246 86.8239 360.346 79.9939C366.576 73.7639 367.656 72.5939 374.426 66.0739C381.206 59.5539 386.526 61.8139 395.346 61.9939C404.496 62.1739 412.256 62.4539 421.346 62.9939C430.436 63.5339 440.186 62.2439 449.346 62.9939C458.506 63.7439 455.296 51.7339 464.576 50.2239C473.856 48.7139 478.826 51.2439 482.116 60.2239C485.416 69.1939 476.596 73.1039 473.346 78.9939ZM426.346 164.994C426.306 165.494 426.346 165.994 426.346 165.994C428.976 169.544 426.156 174.544 429.346 177.994C434.856 182.304 439.116 186.474 436.566 194.214C434.016 201.954 426.466 203.594 419.346 200.994C409.536 197.414 409.976 180.884 420.346 177.994C423.516 153.104 394.266 131.124 371.346 138.994C379.276 144.744 389.566 150.494 393.346 159.994C394.636 164.074 393.716 168.124 393.346 171.994C393.346 181.494 394.176 192.314 392.346 200.994C382.386 190.804 393.626 167.264 384.596 157.744C375.566 148.234 365.716 137.554 352.346 137.994C338.976 138.434 316.166 134.704 305.096 141.744C294.036 148.784 288.756 159.434 278.346 166.994C278.526 154.154 289.326 143.044 300.596 135.244C311.866 127.434 337.156 132.754 351.346 131.994C365.536 131.234 389.476 129.014 401.046 136.294C412.606 143.584 422.886 152.364 426.346 164.994Z" fill="#052445" stroke="black"/>
<path d="M647.145 443C622.715 469.23 585.875 477.94 550.815 476.33C515.755 474.72 487.805 459.03 463.395 432.75C438.985 406.46 433.175 367.15 433.145 332C433.115 296.85 415.065 267.47 389.895 244.25C364.725 221.03 323.055 209.72 289.155 216.01C255.255 222.3 229.395 238.58 209.065 266.92C188.725 295.26 188.255 342.32 198.825 374.32C209.395 406.32 224.695 431.32 248.395 455.75C272.085 480.18 292.435 496.97 322.465 512.68C352.495 528.39 387.695 539.97 423.135 543.01C458.575 546.05 506.575 541.43 539.075 529.93C571.565 518.42 597.095 505.01 623.895 483.75C650.705 462.49 663.225 439.26 683.395 412.25C703.555 385.24 714.415 352.91 721.215 319.07C728.025 285.24 727.075 234.52 717.455 201.69C707.825 168.87 694.605 139.8 675.065 113.08C655.525 86.36 636.455 66.22 609.845 47.3C583.225 28.39 553.385 11.74 521.145 6C547.515 31.56 566.185 54.44 574.155 90.99C582.125 127.54 573.975 172.35 554.915 203.77C535.855 235.19 510.195 246.21 484.895 271.75C459.595 297.3 453.195 346.97 464.835 380.31C476.485 413.65 499.635 436.99 533.075 450.07C566.505 463.16 614.915 459.65 647.145 443ZM636.145 82C669.395 115.25 690.185 150.83 705.145 194C711.045 211.01 714.725 229.45 716.145 248C716.235 247.63 717.585 246.16 718.145 246C718.145 260.33 718.145 274.67 718.145 289C716.275 287.86 717.535 284.87 717.145 283C716.985 284.39 716.305 287.02 716.145 289C712.805 330.39 701.745 376.7 674.145 409C669.415 414.53 663.955 420.68 658.145 425C640.005 438.49 620.165 449.65 597.145 451C605.615 447.91 614.415 443.73 622.845 439.7C631.265 435.66 638.435 430.42 645.845 424.7C653.245 418.97 658.735 412.69 664.395 405.25C670.065 397.81 674.805 390.46 678.915 381.77C683.035 373.09 686.385 364.12 690.065 354.92C693.755 345.72 698.275 336.37 699.145 326C700.015 315.63 705.175 304.77 705.125 293.98C705.065 283.18 707.855 267.67 706.145 257C704.435 246.33 707.175 231.42 698.145 227C683.175 229.8 662.155 227.07 647.145 227C632.135 226.93 625.505 237.13 615.895 246.75C606.285 256.38 598.985 262.59 589.895 271.75C580.805 280.91 573.685 288.86 564.145 297C563.165 297.84 562.745 299.86 561.145 300C556.535 294.61 563.175 290.21 567.145 287C579.475 272.57 594.925 261.3 607.145 247C610.765 242.77 614.875 237.62 619.395 234.25C623.915 230.87 627.475 223.6 632.145 221C637.465 218.04 648.965 220.47 655.145 220C661.325 219.53 673.905 219.76 679.145 220C684.385 220.24 700.865 218.45 701.145 221C701.645 221 702.145 221 702.145 221C700.455 209.5 694.445 196.38 691.145 185C687.835 180.97 675.545 182.79 670.145 183C664.745 183.21 651.295 180.59 648.145 185C646.795 191.62 644.995 192.83 639.065 195.92C633.145 199.02 627.985 194.38 623.145 195C616.905 197.86 613.345 207.34 607.895 211.75C602.445 216.16 598.175 223.75 592.895 228.75C587.625 233.76 582.465 240.14 577.895 245.75C573.325 251.36 567.015 256.92 562.895 262.75C558.775 268.58 550.595 273.34 547.895 279.75C545.195 286.17 549.815 297.47 539.895 301.75C529.975 306.03 521.515 301.21 520.145 292C518.785 282.79 527.315 274.1 536.145 276C544.975 277.9 547.575 268.74 553.445 263.3C559.325 257.87 563.485 252.19 568.445 246.3C573.405 240.42 579.205 234.56 584.145 229C590.215 222.17 597.795 214.33 603.445 207.3C609.105 200.27 621.305 192.77 620.145 184C618.795 173.85 619.005 166.74 630.215 164.07C641.435 161.41 642.995 172.88 650.145 176C656.265 177.68 663.915 174.82 670.145 176C676.375 177.18 684.795 175.43 687.145 174C678.925 164.99 675.825 149.88 667.895 140.25C659.955 130.63 654.225 118.72 645.895 109.25C637.565 99.78 629.695 90.24 620.145 82C595.825 61.01 567.545 46.98 546.145 22C579.275 35.89 610.555 55.35 636.145 82ZM409.145 519C486.965 532.42 563.435 505.02 628.145 467C582.505 510.68 525.785 529.97 463.145 534C400.505 538.03 334.675 516.16 286.395 478.75C238.115 441.34 203.745 393.54 199.145 333C195.585 267.45 253.445 217.45 316.145 221C378.845 224.55 426.535 279.7 424.145 340C410.285 292.66 379.375 248.36 328.145 237C276.915 225.65 216.945 263.61 212.815 317.67C208.685 371.73 237.845 416.53 275.395 452.75C312.945 488.97 359.595 509.03 409.145 519ZM593.145 331C592.335 345.96 593.755 361.03 593.145 376C597.605 379.12 607.935 373.95 613.145 376C618.355 378.05 623.475 373.1 626.395 369.25C629.315 365.39 631.455 361.72 635.395 358.25C639.335 354.78 637.865 348.77 641.895 344.75C645.935 340.74 651.665 339.74 656.835 342.31C662.015 344.87 663.335 349.75 664.145 355C666.075 367.48 648.935 372.01 640.145 364C635.645 370.36 632.495 371.75 627.395 378.25C622.295 384.75 612.205 382.91 604.145 383C596.085 383.09 585.115 382.66 577.145 383C569.175 383.34 557.485 380.56 552.895 386.75C548.295 392.93 542.225 396.74 535.465 393.68C528.715 390.61 524.135 382.67 526.475 375.33C528.815 367.99 532.825 364.2 541.165 363.02C549.505 361.85 550.525 373.22 557.175 374.97C563.825 376.73 577.825 373.71 585.145 375C585.145 362.33 585.145 349.67 585.145 337C563.645 336.33 540.825 338.33 520.145 336C515.065 339.48 514.315 349.14 505.145 348C495.975 346.85 492.195 344.45 489.175 336.97C486.145 329.5 490.335 322.11 495.395 318.25C500.455 314.39 511.815 313.78 514.895 321.25C517.975 328.71 523.815 331.53 533.145 330C542.475 328.47 550.975 330.8 560.145 330C569.315 329.2 578.015 330.6 587.145 330C584.405 319.14 595.265 312.54 601.895 305.75C608.535 298.96 614.475 292.36 621.145 286C617.195 277.42 623.575 266.17 633.145 266C642.725 265.84 650.245 275.19 645.225 285.08C640.195 294.96 630.055 287.75 623.395 291.25C616.735 294.75 611.105 303.12 606.225 309.08C601.355 315.04 591.645 321.93 593.145 331ZM334.145 311C342.585 312.21 354.975 306.98 358.145 317C364.325 336.55 355.595 361.4 359.145 382C367.375 380.58 371.495 383.89 380.145 382C388.795 380.11 390.005 386.73 389.145 394C388.285 401.27 388.125 406.68 392.145 412C409.415 426.76 425.605 443.69 442.145 459C451.285 454.12 462.465 456.84 467.065 466.08C471.675 475.31 462.275 485.1 455.065 487.92C447.865 490.75 433.325 483.38 435.165 473.98C437.015 464.57 433.555 457.9 424.895 452.25C416.245 446.59 414.665 440.23 406.395 434.75C398.125 429.27 396.795 422.96 387.895 417.25C378.995 411.53 381.735 397.13 380.145 388C374.485 384 356.405 393.53 353.845 383.3C351.275 373.07 354.215 362.33 353.145 352C352.075 341.67 354.575 331.33 352.815 321.33C351.055 311.33 334.935 312.62 333.145 321C332.085 331.92 336.475 346.62 333.145 357C336.295 357.45 347.655 355.19 344.365 361.22C341.075 367.26 331.585 354.91 332.155 366.01C332.715 377.11 331.405 389.84 332.145 401C332.885 412.16 339.665 412.61 347.375 420.77C355.085 428.93 366.565 437.61 374.145 446C386.985 433.41 408.655 450.24 398.225 465.08C387.795 479.92 362.795 466.95 370.145 450C358.095 441.76 354.525 432.73 341.895 424.25C329.265 415.77 323.065 400.2 327.145 384C319.475 384 311.815 384 304.145 384C304.145 387 304.145 390 304.145 393C295.815 393 287.475 393 279.145 393C279.145 381 279.145 369 279.145 357C287.475 357 295.815 357 304.145 357C304.145 363.67 304.145 370.33 304.145 377C311.785 377.46 319.895 375.96 327.145 378C327.145 366.33 327.145 354.67 327.145 343C327.145 324.67 327.145 306.33 327.145 288C316.915 287.35 307.445 288.86 297.145 288C286.845 287.14 286.005 294.61 278.895 300.75C271.775 306.88 278.575 314.65 277.815 322.67C277.055 330.69 268.095 336.69 260.145 336C252.195 335.31 246.255 328.33 244.175 320.98C242.085 313.62 246.935 304.33 255.145 303C257.655 302.29 260.975 301.5 264.145 302C268.565 302.7 268.015 303.11 272.145 302C275.465 299.17 277.345 293.62 280.895 290.75C284.445 287.88 286.235 280.75 292.145 282C298.065 283.26 306.515 280.26 312.145 282C317.775 283.74 328.525 278.77 333.145 282C335.745 283.82 334.145 292.53 334.145 296C334.145 299.47 335.265 307.51 334.145 311Z" fill="#022142" stroke="black"/>
<g filter="url(#filter0_d_6_7718)">
<path d="M264.938 608.219C264.938 610.625 264.625 612.797 264 614.734C263.406 616.641 262.609 618.328 261.609 619.797C260.609 621.266 259.438 622.516 258.094 623.547C256.75 624.578 255.359 625.422 253.922 626.078C252.484 626.734 251.016 627.219 249.516 627.531C248.047 627.844 246.656 628 245.344 628H198.328V615.812H245.344C247.688 615.812 249.5 615.125 250.781 613.75C252.094 612.375 252.75 610.531 252.75 608.219C252.75 607.094 252.578 606.062 252.234 605.125C251.891 604.188 251.391 603.375 250.734 602.688C250.109 602 249.328 601.469 248.391 601.094C247.484 600.719 246.469 600.531 245.344 600.531H217.312C215.344 600.531 213.219 600.188 210.938 599.5C208.656 598.781 206.531 597.641 204.562 596.078C202.625 594.516 201 592.469 199.688 589.938C198.406 587.406 197.766 584.312 197.766 580.656C197.766 577 198.406 573.922 199.688 571.422C201 568.891 202.625 566.844 204.562 565.281C206.531 563.688 208.656 562.547 210.938 561.859C213.219 561.141 215.344 560.781 217.312 560.781H258.797V572.969H217.312C215 572.969 213.188 573.672 211.875 575.078C210.594 576.484 209.953 578.344 209.953 580.656C209.953 583 210.594 584.859 211.875 586.234C213.188 587.578 215 588.25 217.312 588.25H245.344H245.438C246.75 588.281 248.141 588.469 249.609 588.812C251.078 589.125 252.531 589.625 253.969 590.312C255.438 591 256.828 591.875 258.141 592.938C259.453 593.969 260.609 595.219 261.609 596.688C262.641 598.156 263.453 599.844 264.047 601.75C264.641 603.656 264.938 605.812 264.938 608.219ZM341.016 628H328.828V611.5H285.984V628H273.797V594.391C273.797 589.484 274.641 584.969 276.328 580.844C278.016 576.719 280.359 573.172 283.359 570.203C286.359 567.234 289.906 564.922 294 563.266C298.094 561.609 302.562 560.781 307.406 560.781H334.875C335.719 560.781 336.516 560.938 337.266 561.25C338.016 561.562 338.672 562 339.234 562.562C339.797 563.125 340.234 563.781 340.547 564.531C340.859 565.281 341.016 566.078 341.016 566.922V628ZM285.984 599.312H328.828V572.969H307.406C307.031 572.969 306.234 573.031 305.016 573.156C303.828 573.25 302.438 573.516 300.844 573.953C299.281 574.391 297.625 575.062 295.875 575.969C294.125 576.875 292.516 578.125 291.047 579.719C289.578 581.312 288.359 583.312 287.391 585.719C286.453 588.094 285.984 590.984 285.984 594.391V599.312ZM433.453 628H421.172V587.969L399.562 625.984C399.031 626.953 398.281 627.688 397.312 628.188C396.375 628.688 395.359 628.938 394.266 628.938C393.203 628.938 392.203 628.688 391.266 628.188C390.359 627.688 389.641 626.953 389.109 625.984L367.406 587.969V628H355.219V565.984C355.219 564.578 355.625 563.328 356.438 562.234C357.281 561.141 358.375 560.406 359.719 560.031C360.375 559.875 361.031 559.828 361.688 559.891C362.344 559.922 362.969 560.062 363.562 560.312C364.188 560.531 364.75 560.859 365.25 561.297C365.75 561.703 366.172 562.203 366.516 562.797L394.266 611.031L422.016 562.797C422.734 561.609 423.719 560.766 424.969 560.266C426.25 559.766 427.578 559.688 428.953 560.031C430.266 560.406 431.344 561.141 432.188 562.234C433.031 563.328 433.453 564.578 433.453 565.984V628ZM513.516 621.859C513.516 622.734 513.359 623.547 513.047 624.297C512.734 625.047 512.297 625.703 511.734 626.266C511.172 626.797 510.516 627.219 509.766 627.531C509.016 627.844 508.219 628 507.375 628H479.906C477.312 628 474.688 627.719 472.031 627.156C469.375 626.594 466.797 625.734 464.297 624.578C461.828 623.391 459.5 621.891 457.312 620.078C455.125 618.266 453.203 616.125 451.547 613.656C449.922 611.156 448.641 608.312 447.703 605.125C446.766 601.906 446.297 598.328 446.297 594.391V560.781H458.484V594.391C458.484 597.828 458.953 600.734 459.891 603.109C460.859 605.484 462.078 607.469 463.547 609.062C465.016 610.656 466.625 611.906 468.375 612.812C470.125 613.719 471.781 614.391 473.344 614.828C474.938 615.266 476.328 615.547 477.516 615.672C478.734 615.766 479.531 615.812 479.906 615.812H501.328V560.781H513.516V621.859ZM594.891 583.375C594.891 586.156 594.547 588.641 593.859 590.828C593.172 593.016 592.234 594.953 591.047 596.641C589.891 598.297 588.547 599.719 587.016 600.906C585.484 602.094 583.875 603.078 582.188 603.859C580.531 604.609 578.844 605.156 577.125 605.5C575.438 605.844 573.844 606.016 572.344 606.016L597.797 628H578.953L553.547 606.016H544.781V593.828H572.344C573.875 593.703 575.266 593.391 576.516 592.891C577.797 592.359 578.891 591.656 579.797 590.781C580.734 589.906 581.453 588.859 581.953 587.641C582.453 586.391 582.703 584.969 582.703 583.375V575.688C582.703 575 582.609 574.484 582.422 574.141C582.266 573.766 582.047 573.5 581.766 573.344C581.516 573.156 581.234 573.047 580.922 573.016C580.641 572.984 580.375 572.969 580.125 572.969H539.906V628H527.719V566.922C527.719 566.078 527.875 565.281 528.188 564.531C528.5 563.781 528.922 563.125 529.453 562.562C530.016 562 530.672 561.562 531.422 561.25C532.172 560.938 532.984 560.781 533.859 560.781H580.125C582.844 560.781 585.141 561.281 587.016 562.281C588.891 563.25 590.406 564.484 591.562 565.984C592.75 567.453 593.594 569.047 594.094 570.766C594.625 572.484 594.891 574.094 594.891 575.594V583.375ZM673.078 628H660.891V611.5H618.047V628H605.859V594.391C605.859 589.484 606.703 584.969 608.391 580.844C610.078 576.719 612.422 573.172 615.422 570.203C618.422 567.234 621.969 564.922 626.062 563.266C630.156 561.609 634.625 560.781 639.469 560.781H666.938C667.781 560.781 668.578 560.938 669.328 561.25C670.078 561.562 670.734 562 671.297 562.562C671.859 563.125 672.297 563.781 672.609 564.531C672.922 565.281 673.078 566.078 673.078 566.922V628ZM618.047 599.312H660.891V572.969H639.469C639.094 572.969 638.297 573.031 637.078 573.156C635.891 573.25 634.5 573.516 632.906 573.953C631.344 574.391 629.688 575.062 627.938 575.969C626.188 576.875 624.578 578.125 623.109 579.719C621.641 581.312 620.422 583.312 619.453 585.719C618.516 588.094 618.047 590.984 618.047 594.391V599.312ZM699.562 628H687.375V560.781H699.562V628ZM370.266 672.969H343.406V728H331.219V672.969H304.312V660.781H370.266V672.969ZM434.531 700.531H396.047V688.25H434.531V700.531ZM440.016 728H396.047C394.359 728 392.516 727.703 390.516 727.109C388.516 726.516 386.656 725.547 384.938 724.203C383.25 722.828 381.828 721.062 380.672 718.906C379.547 716.719 378.984 714.047 378.984 710.891V666.922C378.984 666.078 379.141 665.281 379.453 664.531C379.766 663.781 380.188 663.125 380.719 662.562C381.281 662 381.938 661.562 382.688 661.25C383.438 660.938 384.25 660.781 385.125 660.781H440.016V672.969H391.172V710.891C391.172 712.484 391.594 713.703 392.438 714.547C393.281 715.391 394.516 715.812 396.141 715.812H440.016V728ZM511.547 728H467.578C466.453 728 465.234 727.875 463.922 727.625C462.641 727.344 461.359 726.922 460.078 726.359C458.828 725.797 457.625 725.078 456.469 724.203C455.312 723.297 454.281 722.219 453.375 720.969C452.5 719.688 451.797 718.219 451.266 716.562C450.734 714.875 450.469 712.984 450.469 710.891V677.891C450.469 676.766 450.594 675.562 450.844 674.281C451.125 672.969 451.547 671.688 452.109 670.438C452.672 669.156 453.406 667.938 454.312 666.781C455.219 665.625 456.297 664.609 457.547 663.734C458.828 662.828 460.297 662.109 461.953 661.578C463.609 661.047 465.484 660.781 467.578 660.781H511.547V672.969H467.578C465.984 672.969 464.766 673.391 463.922 674.234C463.078 675.078 462.656 676.328 462.656 677.984V710.891C462.656 712.453 463.078 713.672 463.922 714.547C464.797 715.391 466.016 715.812 467.578 715.812H511.547V728ZM535.359 688.25H578.156V660.781H590.344V728H578.156V700.531H535.359V728H523.172V660.781H535.359V688.25Z" fill="url(#paint0_linear_6_7718)"/>
</g>
<defs>
<filter id="filter0_d_6_7718" x="193.766" y="559.516" width="509.797" height="176.484" filterUnits="userSpaceOnUse" color-interpolation-filters="sRGB">
<feFlood flood-opacity="0" result="BackgroundImageFix"/>
<feColorMatrix in="SourceAlpha" type="matrix" values="0 0 0 0 0 0 0 0 0 0 0 0 0 0 0 0 0 0 127 0" result="hardAlpha"/>
<feOffset dy="4"/>
<feGaussianBlur stdDeviation="2"/>
<feComposite in2="hardAlpha" operator="out"/>
<feColorMatrix type="matrix" values="0 0 0 0 0 0 0 0 0 0 0 0 0 0 0 0 0 0 0.25 0"/>
<feBlend mode="normal" in2="BackgroundImageFix" result="effect1_dropShadow_6_7718"/>
<feBlend mode="normal" in="SourceGraphic" in2="effect1_dropShadow_6_7718" result="shape"/>
</filter>
<linearGradient id="paint0_linear_6_7718" x1="248" y1="572.5" x2="645.351" y2="687.532" gradientUnits="userSpaceOnUse">
<stop stop-color="#00A2EA"/>
<stop offset="0.592961" stop-color="#00C6F3"/>
<stop offset="1" stop-color="#005D99"/>
</linearGradient>
</defs>
</svg>
